<mxfile host="65bd71144e">
    <diagram id="OX9z_HTUqk6ObNjVz7Gv" name="Page-1">
        <mxGraphModel dx="1234" dy="702" grid="1" gridSize="10" guides="1" tooltips="1" connect="1" arrows="1" fold="1" page="1" pageScale="1" pageWidth="1100" pageHeight="850" math="0" shadow="0">
            <root>
                <mxCell id="0"/>
                <mxCell id="1" parent="0"/>
                <mxCell id="20" value="" style="edgeStyle=none;html=1;fontSize=20;" edge="1" parent="1" source="2" target="5">
                    <mxGeometry relative="1" as="geometry"/>
                </mxCell>
                <mxCell id="2" value="PostList" style="rounded=0;whiteSpace=wrap;html=1;" parent="1" vertex="1">
                    <mxGeometry x="10" y="180" width="690" height="60" as="geometry"/>
                </mxCell>
                <mxCell id="3" value="Header" style="rounded=0;whiteSpace=wrap;html=1;" parent="1" vertex="1">
                    <mxGeometry x="440" y="10" width="240" height="70" as="geometry"/>
                </mxCell>
                <mxCell id="4" value="NewPost" style="rounded=0;whiteSpace=wrap;html=1;fontSize=15;" parent="1" vertex="1">
                    <mxGeometry x="730" y="180" width="200" height="60" as="geometry"/>
                </mxCell>
                <mxCell id="19" value="" style="edgeStyle=none;html=1;fontSize=20;" edge="1" parent="1" source="5" target="7">
                    <mxGeometry relative="1" as="geometry"/>
                </mxCell>
                <mxCell id="5" value="Post" style="rounded=0;whiteSpace=wrap;html=1;fontSize=15;" parent="1" vertex="1">
                    <mxGeometry x="10" y="280" width="580" height="60" as="geometry"/>
                </mxCell>
                <mxCell id="7" value="" style="rounded=0;whiteSpace=wrap;html=1;fontSize=15;" parent="1" vertex="1">
                    <mxGeometry x="30" y="370" width="380" height="350" as="geometry"/>
                </mxCell>
                <mxCell id="8" value="PostDetails" style="text;html=1;strokeColor=none;fillColor=none;align=center;verticalAlign=middle;whiteSpace=wrap;rounded=0;fontSize=20;" vertex="1" parent="1">
                    <mxGeometry x="180" y="395" width="100" height="30" as="geometry"/>
                </mxCell>
                <mxCell id="12" value="" style="shape=singleArrow;direction=north;whiteSpace=wrap;html=1;fontSize=20;" vertex="1" parent="1">
                    <mxGeometry x="360" y="600" width="40" height="100" as="geometry"/>
                </mxCell>
                <mxCell id="13" value="" style="shape=singleArrow;direction=south;whiteSpace=wrap;html=1;fontSize=20;" vertex="1" parent="1">
                    <mxGeometry x="320" y="600" width="40" height="100" as="geometry"/>
                </mxCell>
                <mxCell id="14" value="DeletePost" style="rounded=0;whiteSpace=wrap;html=1;fontSize=20;" vertex="1" parent="1">
                    <mxGeometry x="610" y="620" width="120" height="60" as="geometry"/>
                </mxCell>
                <mxCell id="23" value="PostController" style="rounded=0;whiteSpace=wrap;html=1;fontSize=20;" vertex="1" parent="1">
                    <mxGeometry x="10" y="90" width="1050" height="60" as="geometry"/>
                </mxCell>
                <mxCell id="jAUH-RsshZ8wYIGhrkZl-24" value="EditPost" style="rounded=0;whiteSpace=wrap;html=1;fontSize=20;" vertex="1" parent="1">
                    <mxGeometry x="610" y="550" width="120" height="60" as="geometry"/>
                </mxCell>
            </root>
        </mxGraphModel>
    </diagram>
</mxfile>